<svg xmlns="http://www.w3.org/2000/svg" xmlns:svg="http://www.w3.org/2000/svg" id="svg2" width="32" height="32" x="0" y="0" enable-background="new 0 0 32 32" version="1.1" viewBox="0 0 32 32" xml:space="preserve"><metadata id="metadata3"/><g id="background"><rect id="rect6" width="32" height="32" fill="none"/></g><path id="path15" d="M 16,6 C 6,6 0,15.938 0,15.938 0,15.938 6,26 16,26 26,26 32,16 32,16 32,16 26,6 16,6 z m 0,18 C 7.25,24 2.5,16 2.5,16 2.5,16 7.25,8 16,8 c 8.75,0 13.5,8 13.5,8 0,0 -4.75,8 -13.5,8 z m -5,-5 0,2 7,0 0,-2 -7,0 z m 0,-4 0,2 10,0 0,-2 -10,0 z m 0,-4 0,2 10,0 0,-2 -10,0 z"/></svg>